<svg xmlns:inkscape="http://www.inkscape.org/namespaces/inkscape" xmlns:sodipodi="http://sodipodi.sourceforge.net/DTD/sodipodi-0.dtd" xmlns="http://www.w3.org/2000/svg" xmlns:svg="http://www.w3.org/2000/svg" width="210mm" height="297mm" viewBox="0 0 210 297" version="1.1" id="svg5" inkscape:version="1.1 (c68e22c387, 2021-05-23)" sodipodi:docname="firma.svg">
  <sodipodi:namedview id="namedview7" pagecolor="#ffffff" bordercolor="#666666" borderopacity="1.0" inkscape:pageshadow="2" inkscape:pageopacity="0.0" inkscape:pagecheckerboard="0" inkscape:document-units="mm" showgrid="false" inkscape:zoom="0.77771465" inkscape:cx="396.67505" inkscape:cy="558.68821" inkscape:window-width="3440" inkscape:window-height="1361" inkscape:window-x="-9" inkscape:window-y="-9" inkscape:window-maximized="1" inkscape:current-layer="layer1"/>
  <defs id="defs2"/>
  <g inkscape:label="Capa 1" inkscape:groupmode="layer" id="layer1">
    <path style="fill:#ff00ff;stroke-width:0.264583" id="path188" d="m 19.677401,124.15389 c 6.449947,-5.86309 12.416724,-12.23363 18.519539,-18.44984 6.398877,-6.517763 7.279368,-7.363633 13.616453,-13.68369 1.852589,-1.812917 3.654407,-3.679217 5.557766,-5.438757 1.152073,-1.065022 2.268448,-2.203399 3.602419,-3.029272 0.358023,-0.221658 -0.403408,0.742727 -0.547952,1.138224 -0.351912,0.962879 -0.559753,1.976178 -0.938472,2.928829 -0.818819,2.059704 -5.042276,11.332493 -5.674548,12.731756 -2.039308,4.89308 -4.21259,9.45327 -5.353754,14.66534 -0.429212,1.96036 -0.738523,3.98056 -0.648689,5.98535 0.11403,2.54483 0.950608,4.95897 3.524887,5.90387 0.925523,0.33972 1.97136,0.0417 2.957042,0.0625 0.671954,-0.26832 1.380432,-0.45892 2.01586,-0.80496 2.87982,-1.56832 2.386669,-2.12784 -0.808826,0.0722 -0.550447,0.37897 -0.984411,0.91107 -1.403802,1.43139 -0.19531,0.24231 -0.720484,0.91948 -0.421473,0.83314 1.152575,-0.33284 2.136777,-1.09134 3.205165,-1.637 1.096102,-1.1962 2.240206,-2.35012 3.288305,-3.58859 2.570265,-3.03713 7.683362,-9.66941 9.998958,-12.67866 4.139674,-5.37974 8.213323,-10.809593 12.301128,-16.228683 0.474903,-0.621681 3.15033,-4.183965 4.010509,-5.13442 0.240255,-0.26547 1.095756,-0.922168 0.819671,-0.694192 -0.687803,0.567952 -1.498531,1.016915 -2.054865,1.71415 -0.609346,0.763675 -0.898274,1.735701 -1.37726,2.587215 -0.759954,1.351005 -1.559287,2.679478 -2.33893,4.019217 -2.955583,4.882393 -5.796436,9.838763 -8.37611,14.931563 -1.08322,2.1385 -3.087269,6.16015 -3.79199,8.60204 -0.302,1.04644 -0.349758,2.15005 -0.524637,3.22507 0.142695,0.77755 0.05109,1.63779 0.428086,2.33264 1.201914,2.2153 4.373173,0.76286 5.86182,2.2e-4 2.820476,-1.44493 3.464308,-1.95355 5.691086,-3.47347 0.488718,-0.28386 0.921885,-0.69929 1.466152,-0.8516 0.287015,-0.0803 -0.750716,0.34335 -0.643036,0.62126 0.106413,0.27463 0.629391,-0.14916 0.883598,-2.7e-4 0.681148,0.39859 0.557059,1.74826 0.832149,2.22479 0.210788,0.36514 0.641799,0.54693 0.962699,0.82039 1.905027,0.058 0.958321,0.15609 2.859051,-0.31482 0.473612,-0.11734 0.953241,-0.21274 1.420656,-0.35274 0.653114,-0.19562 1.275921,-0.49139 1.938195,-0.6533 1.746829,-0.42707 2.64414,-0.35705 4.448942,-0.41395 0.837414,0.007 1.674947,0.006 2.512245,0.0218 3.002252,0.0566 1.657845,0.10366 4.613942,0.0713 2.19389,-0.024 4.38458,-0.13217 6.57521,-0.2448 3.40033,-0.2484 6.80685,-0.042 10.20965,-0.22287 2.55896,-0.14049 5.07416,-0.73172 7.6351,-0.84461 1.74405,-0.0769 5.33782,0.11928 6.60612,0.16802 0,0 0.37296,-0.26089 0.37296,-0.26089 v 0 c -1.01409,-0.39424 -1.98163,-0.94015 -3.04228,-1.18272 -0.71308,-0.16308 -1.46356,-0.0456 -2.19441,-0.0149 -2.56887,0.1077 -5.09085,0.72628 -7.65694,0.87198 -3.40889,0.15715 -6.81827,-0.0207 -10.2226,0.23178 -2.19468,0.11507 -4.39282,0.23357 -6.59064,0.26951 -2.34976,0.0384 -2.24431,-0.0123 -4.62713,-0.0588 -0.836329,-0.0163 -1.672836,-0.022 -2.509255,-0.033 -1.781611,0.0302 -2.751039,-0.0545 -4.484722,0.36173 -0.657079,0.15773 -1.272198,0.45746 -1.917689,0.6574 -0.486664,0.15075 -0.985473,0.25914 -1.476767,0.39403 -1.916668,0.52625 -0.869701,0.37105 -2.74801,0.47653 -0.284228,-0.24475 -0.672647,-0.40521 -0.852691,-0.73426 -0.354806,-0.64844 -0.172355,-1.96514 -0.934379,-2.48878 -0.263117,-0.18081 -0.655875,-0.1429 -0.957045,-0.037 -1.60704,0.56522 -2.906324,1.39702 -4.329848,2.24522 -1.515253,1.02923 -2.775424,2.01048 -4.585526,2.5232 -1.121531,0.31768 -2.616644,0.58686 -3.348429,-0.71945 -0.373173,-0.66615 -0.295767,-1.49819 -0.44365,-2.24728 0.170113,-1.05794 0.21962,-2.14249 0.510344,-3.17382 0.707361,-2.50935 2.572716,-6.3119 3.684786,-8.52936 2.559124,-5.10288 5.416838,-10.04806 8.381002,-14.924276 0.808088,-1.35496 1.636183,-2.698192 2.424266,-4.064886 0.508185,-0.881288 1.503492,-1.661393 1.463887,-2.677933 -0.02045,-0.525015 -1.06303,-0.237548 -1.572472,-0.108984 -0.321776,0.0812 -0.505195,0.434626 -0.720074,0.68753 -0.887698,1.044776 -3.267744,4.302551 -3.832741,5.063633 -4.021349,5.412956 -8.04437,10.825456 -12.162247,16.165726 -2.590681,3.35973 -7.322098,9.45925 -10.199061,12.7469 -1.101082,1.25826 -2.318845,2.40943 -3.478265,3.61414 0.116057,0.0492 0.250703,0.22768 0.348168,0.14772 0.22176,-0.18194 0.218892,-0.53955 0.400283,-0.76176 0.403034,-0.49372 1.04835,-0.79851 1.337175,-1.36664 0.0938,-0.18452 -0.765768,0.10077 -0.619292,-0.0455 0.242342,-0.24196 4.285824,-1.37576 -0.916731,0.46374 -0.928957,-0.0151 -1.911165,0.26501 -2.786875,-0.0454 -2.513586,-0.89085 -3.442562,-3.14603 -3.560061,-5.6814 -0.09279,-2.00218 0.261668,-4.01575 0.694867,-5.97271 1.18758,-5.3648 3.221091,-9.57554 5.328238,-14.630175 1.096766,-2.387499 2.197078,-4.773374 3.290305,-7.162495 0.867754,-1.89638 1.839269,-3.749331 2.592628,-5.693992 0.407353,-1.05151 1.546222,-2.357917 0.878785,-3.266834 -0.563682,-0.767625 -1.952848,0.20329 -2.773265,0.686924 -1.645248,0.96987 -8.692438,8.15557 -8.927028,8.386929 -7.363354,7.37766 -6.033254,6.026272 -13.58546,13.672513 -6.198791,6.27597 -12.309308,12.65634 -18.855817,18.57573 0,0 1.745647,-0.7113 1.745647,-0.7113 z"/>
  </g>
</svg>